<?xml version="1.0" encoding="UTF-8" standalone="no"?>
<!DOCTYPE svg PUBLIC "-//W3C//DTD SVG 1.1//EN" "http://www.w3.org/Graphics/SVG/1.1/DTD/svg11.dtd">
<svg width="100%" height="100%" viewBox="0 0 533 556" version="1.1" xmlns="http://www.w3.org/2000/svg" xmlns:xlink="http://www.w3.org/1999/xlink" xml:space="preserve" xmlns:serif="http://www.serif.com/" style="fill-rule:evenodd;clip-rule:evenodd;stroke-linejoin:round;stroke-miterlimit:2;">
    <g id="Doe" transform="matrix(1,0,0,1,-1424.643136,-1350.119389)">
        <g>
            <path d="M1494.338,1777.638L1492.764,1776.064C1474.759,1785.067 1476.086,1798.133 1475.336,1801.883C1463.889,1859.119 1484.966,1875.817 1483.082,1876.759C1482.99,1876.805 1475.362,1876.169 1474.691,1876.113C1450.649,1874.11 1441.627,1878.262 1439.19,1870.949C1421.113,1816.72 1408.037,1759.685 1475.415,1750.149C1472.722,1731.3 1473.231,1723.539 1472.837,1716.615C1473.842,1720.844 1473.969,1719.636 1470.818,1699.75C1447.581,1553.078 1609.621,1565.284 1609.621,1565.284C1649.718,1559.862 1783.895,1532.194 1783.895,1532.194C1783.895,1532.194 1816.794,1473.833 1820.021,1428.004C1821.172,1411.668 1825.616,1401.655 1830.859,1395.533C1829.783,1395.097 1828.949,1394.684 1828.5,1394.385C1812.233,1383.54 1812.187,1364.188 1811.844,1362.13C1811.371,1359.291 1813.598,1361.889 1813.959,1362.13C1814.72,1362.637 1814.764,1362.402 1815.545,1362.923C1818.789,1365.086 1822.479,1367.606 1825.837,1369.155C1825.494,1362.892 1828.366,1357.381 1829.822,1351.554C1831.199,1346.049 1834.418,1357.472 1844.364,1367.418C1856.813,1379.867 1860.411,1383.899 1862.759,1385.857C1869.974,1386.165 1881.131,1387.363 1896.771,1390.947C1927.754,1398.047 1920,1418.321 1920,1418.321C1965.025,1427.073 1962.576,1458.013 1948.471,1453.177C1942.028,1462.61 1918.965,1454.828 1901.616,1454.702C1896.023,1454.661 1863.615,1448.312 1866.496,1469.96C1871.491,1507.501 1809.143,1764.657 1795.993,1763.196C1799.22,1801.118 1843.597,1879.382 1843.597,1879.382L1799.22,1900.36L1800.657,1903.869C1797.602,1905.059 1757.563,1783.963 1751.601,1778.001C1745.382,1771.782 1738.229,1776.616 1725.136,1737.335L1723.845,1736.69C1723.845,1735.544 1673.011,1765.012 1663.816,1769.609L1663.17,1768.964C1676.097,1788.354 1672.415,1790.036 1676.725,1798.656L1674.789,1796.074C1674.789,1802.914 1674.789,1852.875 1681.889,1881.277C1682.196,1882.506 1684.772,1892.809 1686.462,1898.152C1675.824,1900.237 1661.179,1903.237 1653.488,1905.16L1653.488,1901.287C1649.295,1892.9 1634.35,1831.38 1615.405,1793.492C1605.034,1772.752 1616.57,1761.595 1617.987,1757.345C1627.992,1727.33 1626.855,1719.373 1626.378,1716.035L1625.733,1717.971C1612.649,1718.978 1609.568,1714.798 1603.786,1726.362C1596.34,1741.257 1569.261,1769.365 1552.794,1773.482C1525.672,1780.263 1495.159,1776.497 1494.338,1777.638ZM1494.338,1777.638L1494.701,1778.001C1494.39,1777.845 1494.275,1777.727 1494.338,1777.638ZM1472.837,1716.615C1471.722,1711.924 1469.527,1700.543 1469.527,1700.543C1471.89,1707.632 1472.57,1711.933 1472.837,1716.615Z" style="fill:rgb(6,3,10);"/>
            <path d="M1605.998,1638.489C1605.726,1638.713 1605.453,1638.96 1605.179,1639.234L1607.435,1638.106C1606.947,1638.228 1606.468,1638.356 1605.998,1638.489C1615.929,1630.339 1624.854,1654.683 1604.052,1668.551C1584.002,1681.917 1574.134,1647.528 1605.998,1638.489ZM1538.846,1610.849C1538.236,1610.798 1538.079,1611.035 1538.651,1611.608C1539.074,1612.03 1538.651,1611.528 1538.651,1611.044L1538.846,1610.849C1540.927,1611.022 1548.274,1614.54 1549.927,1619.501C1550.507,1621.238 1554.394,1632.902 1535.832,1637.542C1502.934,1645.767 1512.26,1605.089 1539.215,1610.48L1538.846,1610.849ZM1613.636,1584.545L1613.073,1585.109L1616.455,1586.237C1636.452,1596.235 1607.5,1620.379 1593.34,1613.299C1570.369,1601.813 1603.815,1579.634 1613.636,1584.545ZM1691.44,1587.364L1690.877,1587.364C1692.582,1589.07 1706.099,1602.587 1680.164,1615.554C1654.361,1628.456 1655.454,1575.369 1691.44,1587.364Z" style="fill:rgb(17,15,44);"/>
        </g>
    </g>
</svg>
