<?xml version="1.0" encoding="UTF-8" standalone="no"?>
<!DOCTYPE svg PUBLIC "-//W3C//DTD SVG 1.1//EN" "http://www.w3.org/Graphics/SVG/1.1/DTD/svg11.dtd">
<svg width="100%" height="100%" viewBox="0 0 4596 3218" version="1.1" xmlns="http://www.w3.org/2000/svg" xmlns:xlink="http://www.w3.org/1999/xlink" xml:space="preserve" xmlns:serif="http://www.serif.com/" style="fill-rule:evenodd;clip-rule:evenodd;stroke-linejoin:round;stroke-miterlimit:2;">
    <g id="Folliage2" transform="matrix(1,0,0,1,442.61298,258.849549)">
        <path d="M2338.378,52.498C2323.849,66.202 2272.301,101.819 2177.875,54.607C2156.457,43.898 2036.563,-83.518 2389.536,-157.054C2519.882,-184.209 2862.988,-298.744 3515.035,-244.406C3767.017,-223.408 3878.58,-139.733 3904.761,-120.097C3928.252,-102.479 4066.028,0.856 4052.588,215.872C4050.871,243.337 4036.714,268.875 4014.633,291.566C4042.78,373.771 4069.333,486.405 4108.862,637.935C4169.477,870.291 4192.401,1659.737 4014.791,1837.347C4002.624,1849.514 3985.715,1880.491 3940.001,1908.801L3940.001,2938.052L2657.272,2938.052C2648.135,2948.371 2638.898,2958.857 2638.898,2958.857C2599.87,2951.052 2553.883,2944.147 2502.062,2938.052L2480.631,2938.052L2480.631,2935.613C1832.785,2864.287 348.235,2910.311 35.896,2910.311C-69.645,2993.351 -192.096,2936.054 -201.549,2926.601C-300.452,2827.694 -508.563,2666.499 -422.029,2406.897C-316.25,2089.558 -111.436,2088.15 7.439,2068.689L7.422,2068.204L7.422,2063.034C2.869,2062.324 0.691,2062.919 3.182,2060.428L7.422,2061.488L7.422,2059.207L25.415,2054.709C28.727,2053.881 52.404,2047.962 65.899,2041.214L61.401,2036.716C17.624,2000.526 1.835,1762.219 103.926,1706.135C103.926,1706.135 184.238,1763.019 200.846,1879.277L205.345,1888.274C156.128,1900.578 155.519,1895.886 151.366,1897.27L146.867,1897.27L182.853,1915.263C198.084,1922.879 211.212,1920.816 216.505,1927.724C227.146,1941.614 219.116,1986.267 218.839,1987.235C282.457,1966.03 317.801,2054.709 317.801,2054.709C365.979,2006.531 342.41,1989.021 398.769,1946.751C415.108,1934.497 535.44,1832.536 648.588,1870.252C648.588,1870.252 623.437,2025.594 484.236,2095.193C373.73,2150.446 530.954,2098.312 641.675,2153.671L641.675,2158.169C643.221,2158.169 642.578,2130.276 668.665,2104.19C672.126,2100.729 705.495,2055.285 718.989,2028.295C725.642,2014.989 774.475,2008.191 803.612,2212.148L803.612,2203.151C860.108,2241.568 866.924,2230.479 916.068,2279.622L920.567,2275.123C1004.95,1975.321 1045.528,2341.356 1033.772,2372.642C1033.36,2373.278 1033.106,2373.766 1033.023,2374.085C1033.292,2373.737 1033.542,2373.253 1033.772,2372.642C1042.617,2358.977 1124.38,2276.487 1157.435,2309.54C1164.563,2316.668 1156.891,2324.306 1087.644,2420.738C1122.567,2387.906 1286.582,2338.768 1352.099,2363.289C1308.411,2423.267 1319.564,2429.409 1266.932,2482.043C1238.941,2510.034 1140.981,2545.018 1140.981,2545.018C1154.252,2551.654 1148.143,2559.388 1284.925,2661.973C1291.67,2667.032 1365.894,2722.699 1365.894,2729.447L1365.894,2733.945C1387.775,2712.064 1378.664,2706.063 1401.879,2684.464C1418.175,2669.304 1440.474,2638.388 1554.035,2670.185C1554.035,2670.185 1555.935,2578.14 1567.935,2480.092C1749.046,2529.997 1709.529,2686.969 1752.743,2634.983C1798.849,2579.519 1809.02,2610.449 2054.126,2581.004L2049.627,2581.004C2041.31,2572.687 1987.087,2369.178 2022.638,2396.576C2074.458,2436.512 2105.506,2398.604 2200.674,2524.509C2199.776,2525.349 2198.907,2526.188 2198.07,2527.025L2202.568,2527.025C2201.934,2526.179 2201.302,2525.341 2200.674,2524.509C2238.762,2488.866 2329.861,2450.898 2351.07,2430.358C2473.564,2311.722 2440.281,2587.657 2427.481,2603.496C2448.791,2598.76 2598.965,2565.388 2694.857,2646.859C2695.88,2640.685 2696.786,2636.876 2697.567,2636.486C2723.333,2623.603 2639.817,2584.481 2595.432,2580.043C2582.535,2578.753 2604.204,2560.777 2613.433,2551.548C2650.105,2514.875 2769.643,2488.165 2797.014,2515.537C2802.075,2520.598 2794.865,2507.65 2845.393,2440.279C2865.224,2413.839 2837.299,2422.793 2807.765,2408.026C2752.207,2380.247 2825.855,2335.457 2810.453,2335.457C2792.396,2335.457 2788.44,2384.562 2737.883,2367.71C2737.053,2367.433 2613.382,2304.763 2651.875,2295.14C2663.126,2292.327 2774.916,2264.381 2794.326,2268.262C2920.074,2293.411 2920.962,2302.893 2928.714,2295.14C2934.964,2288.89 3010.241,2213.611 3001.283,2211.819C2984.361,2208.435 2856.445,2182.851 2815.828,2101.621C2799.93,2069.827 2986.239,2068.982 3055.532,2129.324C3032.056,2096.772 2994.029,2024.597 2998.596,1918.853C2999.674,1893.878 3005.084,1855.375 3072.444,1911.285C3087.595,1923.861 3157.814,1967.673 3162.549,2012.925C3163.8,2024.879 3188.469,2045.01 3186.739,2042.49C3154.817,1996.01 3190.668,1785.721 3250.228,1909.955C3270.729,1952.716 3246.476,1993.808 3288.874,1972.609C3340.705,1946.693 3342.711,1958.496 3400.354,1956.441C3336.956,1910.316 3311.199,1810.68 3310.376,1803.28C3307.318,1775.753 3308.008,1781.249 3331.356,1787.153C3429.871,1812.067 3493.026,1826.161 3562.034,1849.752L3562.034,1791.114L3561.232,1790.311C3561.5,1790.311 3561.768,1790.316 3562.034,1790.326L3562.034,1782.344L3565.595,1782.344C3570.214,1721.926 3561.289,1678.534 3608.267,926.869C3613.963,835.736 3657.688,672.724 3635.145,661.452C3521.095,604.427 3520.627,584.276 3450.361,607.697C3321.852,650.533 3295.056,623.737 3285.736,614.417C3238.828,567.508 3389.266,476.98 3315.973,513.626C3292.455,525.385 3173.908,545.143 3161.427,547.223C3151.003,548.96 2943.558,550.242 3144.629,416.194C3147.988,413.955 3172.419,405.811 3174.866,404.995C3133.265,379.573 3130.762,420.817 3063.996,443.072C2951.576,480.545 2794.788,460.303 2805.299,449.791C2844.47,410.62 3017.969,323.132 3006.881,312.044C2957.193,262.354 2955.912,236.738 2892.651,268.368C2881.102,274.142 2818.738,305.324 2731.386,261.648C2713.433,252.672 2715.49,199.903 2667.551,207.893C2558.765,226.024 2507.365,204.213 2545.179,114.621C2479.655,140.743 2295.002,107.555 2338.378,52.498C2341.9,49.176 2343.246,47.142 2342.501,47.887C2340.948,49.441 2339.576,50.978 2338.378,52.498ZM-20.923,743.217L-15.548,735.154C-90.623,810.224 -137.229,749.083 -144.56,727.091C-172.309,643.849 -263.461,517.317 -195.628,245.982C-47.874,-345.031 968.07,-59.721 1161.69,-36.233C1271.155,-22.953 1354.385,-113.062 1125.904,267.382C1086.843,332.424 1066.998,281.705 1057.979,267.991C1032.233,228.847 1047.255,175.069 1013.864,122.345C994.853,92.328 988.777,106.667 957.421,122.345C949.358,126.377 949.358,124.353 949.358,125.033C949.358,363.053 771.658,417.499 758.527,415.311C742.328,412.611 757.957,242.315 769.278,208.353C772.861,197.602 739.333,222.749 737.025,224.48C590.651,334.261 455.598,410.637 425.038,436.055C465.957,579.528 471.292,615.121 457.498,684.087C455.79,692.625 302.854,652.887 272.042,560.45C248.514,489.862 249.174,605.223 239.789,646.458C231.472,683.001 226.216,696.092 208.504,714.727C187.861,736.446 108.947,796.859 108.089,794.285C78.898,706.715 140.412,616.272 126.903,630.331C28.467,732.785 4.035,723.418 -20.923,743.217Z" style="fill:rgb(6,3,10);"/>
    </g>
</svg>
