<?xml version="1.0" encoding="UTF-8" standalone="no"?>
<!DOCTYPE svg PUBLIC "-//W3C//DTD SVG 1.1//EN" "http://www.w3.org/Graphics/SVG/1.1/DTD/svg11.dtd">
<svg width="100%" height="100%" viewBox="0 0 1394 1569" version="1.1" xmlns="http://www.w3.org/2000/svg" xmlns:xlink="http://www.w3.org/1999/xlink" xml:space="preserve" xmlns:serif="http://www.serif.com/" style="fill-rule:evenodd;clip-rule:evenodd;stroke-linejoin:round;stroke-miterlimit:2;">
    <g id="Folliage1" transform="matrix(1,0,0,1,-2627.360959,-2173.605518)">
        <path d="M3831.331,2196.676C3873.612,2182.513 3922.857,2198.928 3930.552,2201.493C4108.063,2260.663 3972.592,2888.247 3950.71,3041.418C3876.486,3560.966 3830.309,3554.634 3836.48,3696.56C3841.99,3823.291 3836.088,3653.974 3765.926,3548.733C3747.823,3521.578 3736.995,3520.162 3749.233,3203.838L3706.368,3191.994C3690.333,3143.889 3688.527,3142.083 3685.293,3138.849C3682.222,3135.777 3689.724,3138.736 3724.77,3101.557C3653.621,3126.763 3653.063,3126.036 3651.696,3128.77C3645.581,3141.001 3638.592,3184.599 3637.803,3189.521C3580.878,3183.275 3578.274,3194.052 3530.747,3162.367C3516.349,3152.768 3518.06,3163.642 3512.937,3179.346C3424.95,3171.421 3425.806,3175.209 3336.945,3165.55C3327.328,3136.697 3325.949,3139.067 3309.794,3114.575L3305.48,3185.708C3270.134,3187.671 3271.524,3189.933 3235.093,3185.885C3198.683,3181.839 3213.87,3203.174 3215.386,3216.815L3175.733,3212.558C3155.791,3161.76 3162.911,3145.976 3137.662,3152.288C3090.214,3164.15 3093.014,3168.159 3045.489,3184.278C3063.558,3113.619 3061.78,3114.519 3063.749,3108.612C3075.618,3073.003 3050.905,3108.314 3016.713,3125.41C3011.179,3128.178 3006.396,3124.671 3013.353,3048.137C3014.833,3031.866 3090.028,3029.406 3090.626,3024.619C3091.428,3018.207 3120.193,2788.101 3067.108,2947.346C3050.784,2996.319 3032.588,2974.686 2986.476,2997.742C2965.955,3008.002 2935.672,2969.388 2926.001,2974.224C2904.932,2984.758 2864.077,3062.497 2838.649,2960.785C2732.402,2963.821 2733.645,2968.994 2627.361,2957.052C2643.867,2942.942 2694.047,2888.081 2700.901,2883.512C2739.947,2857.481 2707.246,2783.282 2727.779,2752.484C2733.367,2744.101 2745.374,2803.469 2852.088,2732.325C2886.162,2709.609 2897.548,2707.626 2885.685,2698.728C2851.866,2673.365 2879.235,2668.222 2909.203,2638.254C2934.418,2613.038 3001.576,2562.679 3003.274,2560.981C3065.903,2498.354 3122.611,2617.222 3302.288,2527.384C3272.768,2502.081 3206.858,2468.294 3308.515,2431.755C3271.901,2415.267 3240.357,2417.97 3268.691,2389.636C3318.646,2339.679 3441.398,2345.258 3456.834,2345.96C3513.052,2348.515 3490.812,2374.111 3486.92,2429.757C3526.315,2433.218 3525.23,2433.095 3564.514,2437.043L3560.984,2358.161C3603.377,2344.216 3602.447,2345.431 3645.512,2331.408C3620.962,2244.215 3631.181,2240.808 3638.258,2238.449C3695.515,2219.364 3702.441,2227.673 3715.531,2201.493C3742.469,2147.616 3817.488,2186.599 3831.331,2196.676C3827.373,2198.001 3823.477,2199.595 3819.681,2201.493L3833.12,2198.133C3832.752,2197.765 3832.148,2197.271 3831.331,2196.676ZM3009.994,2685.155C2993.48,2690.66 2987.046,2703.528 2985.911,2705.797C2979.128,2719.365 2987.277,2730.128 3000.845,2750.678C3026.897,2742.057 3026.811,2742.973 3028.915,2741.921C3074.78,2718.989 3067.438,2772.523 3080.52,2798.686C3106.358,2850.359 3128.089,2825.437 3166.529,2838.25C3190.641,2846.288 3199.425,2849.633 3197.492,2839.97L3194.051,2822.769C3192.715,2816.088 3193.197,2816.785 3192.14,2809.389C3149.327,2798.686 3143.179,2796.637 3139.006,2795.246C3123.64,2790.124 3115.83,2798.371 3106.323,2774.604C3116.74,2765.923 3116.326,2766.162 3128.73,2759.96C3124.196,2700.371 3126.02,2700.32 3125.137,2695.207C3124.864,2695.282 3124.999,2695.231 3092.562,2700.637C3090.53,2700.975 3081.048,2699.887 3063.319,2705.797C3009.193,2723.839 3014.172,2693.511 3009.994,2685.155ZM3605.171,3029.189C3604.096,3022.746 3589.105,3029.38 3422.834,3044.67C3548.169,3107.338 3600.633,3072.046 3643.875,3061.872C3623.259,3046.878 3623.56,3047.578 3605.171,3029.189Z" style="fill:rgb(17,15,44);"/>
    </g>
</svg>
